<svg xmlns="http://www.w3.org/2000/svg" viewBox="0 0 672.3 187.89">
    <g id="Layer_2" data-name="Layer 2">
        <g id="Layer_2-2" data-name="Layer 2">
            <path d="M110.52.81a32.16,32.16,0,0,1,22.12,10.55A29.37,29.37,0,0,1,141,34.09q-.42,10.14-6.09,25.36a266.24,266.24,0,0,1-14.81,32.26,356.17,356.17,0,0,1-20.9,34.09,292.6,292.6,0,0,1-24.35,30.85A139.32,139.32,0,0,1,49.44,179q-12.78,8.52-23.74,8.52-8.11,0-13.19-3.86a28.42,28.42,0,0,1-8.11-9.74,37.14,37.14,0,0,1-3.86-13,76.49,76.49,0,0,1-.4-13.6,133,133,0,0,1,5.48-31.45q4.65-15.61,10.14-31T25.91,54a130.54,130.54,0,0,0,5.48-30.84,26.37,26.37,0,0,0-.21-7.71,11.25,11.25,0,0,0-1.82-4.06,34.11,34.11,0,0,0-2.84-3.24,45.23,45.23,0,0,1-4.06-4.87,2.32,2.32,0,0,1,2.23-1.83c1.22-.13,2.09-.2,2.64-.2q14,0,21.18,8.11t6.41,21.51a117.69,117.69,0,0,1-6,31.25Q43.83,77.52,37.87,92.93T27,124a126.28,126.28,0,0,0-5.75,31.45,79.94,79.94,0,0,0-.2,9.94,14.72,14.72,0,0,0,3,8.73q8.12-3.25,18.26-13.4A239.79,239.79,0,0,0,63,136.76a322,322,0,0,0,20.29-30Q93.07,90.5,101,74.87a265.36,265.36,0,0,0,12.79-29q4.86-13.39,5.27-21.92a25,25,0,0,0-.61-8.92,28.55,28.55,0,0,0-4.26-7.72c-.54-.53-1.42-1.48-2.64-2.84S110,1.9,110.52.81ZM5,165.17c0-3-.07-5.95-.21-8.93s-.34-6-.6-8.93A63.46,63.46,0,0,0,4,156.24,66.18,66.18,0,0,0,5,165.17Zm5.27-2.84-.4-2.44.81-18.67q-.82,4.07-1.42,8.32a33.76,33.76,0,0,0-.2,8.32l.81,4.06.4,1.22Zm7.31-51.54a13.09,13.09,0,0,0,1.62-3.86,17.62,17.62,0,0,0,.41-3.85,24.53,24.53,0,0,0-1.22,3.85C18.13,108.15,17.85,109.44,17.59,110.79ZM20.83,82a1,1,0,0,0,0-1.63l-.4.81ZM38.28,49.51a13,13,0,0,0,.82-3.65V44.64c-.28-.27-.61.14-1,1.22s-1.42,4.33-3,9.74a85.88,85.88,0,0,1-2.64,8.93C31.18,68,30,71.16,29,73.86q-3.25,8.52-5.68,17t-2,8.93a6.26,6.26,0,0,1,.41-1.62,28.47,28.47,0,0,1,1.62-4.06A74.07,74.07,0,0,1,25.91,85q2.22-6.69,5.07-13.6T35.85,58Q37.88,51.55,38.28,49.51ZM26.16,65.74q1.21-.81,2.64-5.07t2.84-9.54c.94-3.51,1.76-6.9,2.43-10.14a40.11,40.11,0,0,0,1-6.5V32.87a1.16,1.16,0,0,1,.4-.81q-.41,0-.81.81a3.65,3.65,0,0,0-.4,1.62q-2,7.73-4.26,15.63C28.53,55.39,27.24,60.61,26.16,65.74Zm16.59,0,1.62-4.06a10.83,10.83,0,0,0,.81-4,22.24,22.24,0,0,0-1.21,4A23.83,23.83,0,0,1,42.75,65.74Zm60.87,14.61q4.45-7.3,9.94-18.46T120.26,43q-.83.4-2.23,4.26c-1,2.57-1.56,4.13-1.83,4.66Zm19.07-25.56L106.06,88.87q1.22-1.61,3.85-6.08c1.76-3,3.58-6.15,5.48-9.54s3.51-6.63,4.87-9.74,2-5.34,2-6.7Zm-.81,24.75q2-3.65,3.05-5.68t2-4.06A7.92,7.92,0,0,0,128,67c-.55,1.08-1.62,3.25-3.25,6.49S122.15,78.73,121.88,79.54Z" />
            <path d="M143.39,39.77q.39-12.18,10.35-20.09A72.49,72.49,0,0,1,176.87,7.51a141.57,141.57,0,0,1,27.19-5.89A211.92,211.92,0,0,1,227.39,0h2.44q3.64,0,7.51.2a21.66,21.66,0,0,1,6.89,1.42,11.06,11.06,0,0,1,4.87,3.66c1.22,1.62,1.69,4.05,1.43,7.3q-.42,9.73-5.28,26.58a342.88,342.88,0,0,1-13,36.32,403.06,403.06,0,0,1-19.07,39.37A307.36,307.36,0,0,1,190.06,151a132.11,132.11,0,0,1-25.57,26.38q-13.4,10.16-26.38,10.15a30.36,30.36,0,0,1-13-2.84,50.6,50.6,0,0,1-11.37-7.31c.28-.54,1.16-1,2.64-1.42a41.87,41.87,0,0,1,5.28-1l6.08-.81a15.32,15.32,0,0,0,4.67-1.22q7.71-3.24,17-13.8a264.16,264.16,0,0,0,19.27-25q9.94-14.4,19.48-31t17.45-32.47q7.92-15.82,13.39-29.42t7.11-21.71q-6.51.81-17.25,2.43a148.46,148.46,0,0,0-21.31,4.87,67,67,0,0,0-18.26,8.53q-7.71,5.28-8.12,13.39a19.17,19.17,0,0,0,2.85,9.74l-1.22.81a14.25,14.25,0,0,1-6.7-1.83,30.1,30.1,0,0,1-6.49-4.66,23.82,23.82,0,0,1-4.87-6.29A11.17,11.17,0,0,1,143.39,39.77Zm5.68-5.68c.54,0,1.08-.67,1.62-2a9.6,9.6,0,0,1,1.22-2.44l2.44-4.46c-.55,0-1.36.88-2.44,2.64s-1.76,2.91-2,3.45a2.59,2.59,0,0,1-.4,1.42A2.42,2.42,0,0,0,149.07,34.09ZM160.43,28A2.2,2.2,0,0,0,158,29.83a9,9,0,0,1-1.22,3l2-2a7.15,7.15,0,0,0,1-1.42A3.44,3.44,0,0,0,160.43,28Zm18.26,102.67a51.53,51.53,0,0,0,5.48-7.91q3.86-6.29,8.53-15.22t9.53-19.07q4.88-10.14,9.13-19.07t6.9-15.63a57.68,57.68,0,0,0,3.05-9.13,82,82,0,0,0-3.25,8.12,290.27,290.27,0,0,1-18.87,39.36Q188,111.6,178.69,130.67Zm3.66,7.31a69.74,69.74,0,0,0,8.32-12.58q4.65-8.52,9.33-18.06t8.93-18.67q4.26-9.14,7.1-14.81-1.22,1.62-6.7,11.56T198,106.93Q192.09,118.5,187.22,128T182.35,138Zm13.8-4.06.81-.41a1.16,1.16,0,0,0,.4-.81,67.45,67.45,0,0,0,5.08-8.52q2.22-4.46,4.66-8.93c.81-1.62,1.63-3.24,2.44-4.87a38.1,38.1,0,0,0,2-4.87,63,63,0,0,0-8.32,13.8Q199.8,127,196.15,133.92Z" />
            <path d="M375.11,2.44c.26-1.36,1.21-2,2.84-2a19.76,19.76,0,0,1,8.11,2,45.56,45.56,0,0,1,8.53,5.07,29.49,29.49,0,0,1,6.69,6.9,13.85,13.85,0,0,1,2.64,7.91q-.41,6.09-4.46,14.81t-9.34,18.26q-5.28,9.54-10.75,18.87a133.83,133.83,0,0,0-8.32,16.24q-7.31,16.23-14,32.67a228.83,228.83,0,0,0-10.76,33.48q-.81,4.47-1.42,9.94a64.71,64.71,0,0,1-1.82,9.94,20.35,20.35,0,0,1-3.66,7.51q-2.43,3-7.3,3a22.34,22.34,0,0,1-5.28-.81q-3.24-1.22-6.29-9.94a196.63,196.63,0,0,1-5.88-21.51Q311.79,142,309.36,127T304.9,98q-2-14-3.65-24.76t-2.44-14.81Q294.34,68.58,287,83t-14.2,29.83q-6.9,15.42-12.17,30.23T255,168q0,3.26.21,6.7A31.94,31.94,0,0,1,255,181a7.94,7.94,0,0,1-2.23,4.66c-1.22,1.22-3.31,1.83-6.29,1.83-3.79,0-6.63-.67-8.52-2a11,11,0,0,1-4.06-5.48,23.05,23.05,0,0,1-1.22-7.71c0-2.84.14-5.74.41-8.73a112.59,112.59,0,0,1,8.32-37.33q7.5-18.66,16-36.52t15.83-34.3q7.31-16.43,8.11-30.64a22.59,22.59,0,0,0-.81-7.1,9.46,9.46,0,0,0-2-3.45,12.74,12.74,0,0,0-2.64-2,5.49,5.49,0,0,1-2.23-3.24,1.82,1.82,0,0,1,1.22-1,6.91,6.91,0,0,1,1.62-.2,50.2,50.2,0,0,1,15.63,2.44,32.84,32.84,0,0,1,13.19,8.11q5.26,4.88,8.92,16.44a230.63,230.63,0,0,1,6.29,25q2.64,13.38,4.06,26t2.23,19.88q.81,5.68,1.42,11.37t1.43,11.36a15.93,15.93,0,0,1,.81,3.65c.26,1.9.67,2.84,1.21,2.84Q334.13,125,338,114t8.53-21.92q4.65-11,9.53-21.51t9.74-19.07a148.84,148.84,0,0,0,8.52-17.45,63.73,63.73,0,0,0,4.88-18.67c.26-3.25-.15-5.54-1.22-6.9A18.08,18.08,0,0,1,375.11,2.44ZM245.24,178.56A49.52,49.52,0,0,0,242.81,166v2.43a26.32,26.32,0,0,0,.41,4.47q.39,2.43.6,4.26c.14,1.22.47,1.83,1,1.83Zm34.9-128.24c.27,0,.75-.67,1.43-2s1.35-2.84,2-4.46A34.38,34.38,0,0,0,285.22,39a17.45,17.45,0,0,0,.61-3.25V34.49c-.28,0-.68.75-1.22,2.24s-1.09,3.11-1.62,4.87-1.09,3.52-1.63,5.27A27.47,27.47,0,0,1,280.14,50.32ZM283,59.25q1.61-3.24,4.26-8.93t2.63-8.52V41a.35.35,0,0,0-.4.4,10.21,10.21,0,0,0-1.22,2.84c-.54,1.63-1.22,3.45-2,5.48a61.71,61.71,0,0,0-2,5.89A28.82,28.82,0,0,1,283,59.25ZM294.35,58a19.53,19.53,0,0,0,2.84-8.11q-.82,2-1.62,4A21.84,21.84,0,0,0,294.35,58Zm11,8.93a47.66,47.66,0,0,0-3.25-17,24.53,24.53,0,0,0,.4,3.24q.41,2.45,1,5.28c.41,1.89.74,3.72,1,5.48A7.43,7.43,0,0,0,305.31,67Zm6.89,11a44.78,44.78,0,0,0-1-12.38l-2.64-12.38a10.4,10.4,0,0,1-.81-3.85,10.45,10.45,0,0,0-.81-3.86l-.81-.81v.41a25.56,25.56,0,0,0,.4,7.71c.54,3,1.08,5.54,1.63,7.71.53,2.43,1,4.87,1.42,7.3s.87,4.87,1.42,7.31l.81,2.84c0,.54.13.81.4.81Zm28.82,43a2.49,2.49,0,0,0,.81-1.82,4,4,0,0,1,.41-1.83C341.42,117.83,341,119,341,120.93Zm1.62-4.87a6.42,6.42,0,0,1,.41-2,6.2,6.2,0,0,0,.81-2.44,15,15,0,0,0-.81,2A7.38,7.38,0,0,0,342.64,116.06Zm.81,11a12.47,12.47,0,0,0,1.42-2.64q1-2.22,2-4.87c.67-1.75,1.35-3.38,2-4.87a12.34,12.34,0,0,0,1-2.63q6.89-17.87,14.81-34.3t17.65-33.07a82.75,82.75,0,0,0,4.26-7.1,38.92,38.92,0,0,0,3.05-7.92Q375.91,52.77,363.54,76.9A291.07,291.07,0,0,0,343.45,127ZM352,92.93c.54-.26,1.08-1.48,1.63-3.65a24.2,24.2,0,0,0,.81-4.06A36.85,36.85,0,0,0,352,92.93Zm6.09-15a1.65,1.65,0,0,0,.41-1.22l-.81.41-.41,1.62Zm.81-2.44a16,16,0,0,0,2.24-3.65,24.07,24.07,0,0,0,1.82-4.46,20.38,20.38,0,0,1-2.23,4A10.83,10.83,0,0,0,358.87,75.48Zm5.28-10.55c.27,0,.81-.87,1.62-2.64A11.06,11.06,0,0,0,367,58.84c-.55,1.09-1.08,2.1-1.62,3A11.66,11.66,0,0,0,364.15,64.93Zm20.29-35.31a13.68,13.68,0,0,0,2.44-7.71c-.55,1.36-1,2.64-1.43,3.86A33.29,33.29,0,0,0,384.44,29.62Zm5.68,17.45c.54-.26,1.15-1.14,1.83-2.63s1.14-2.5,1.42-3a17.87,17.87,0,0,0-2,2.64A5.94,5.94,0,0,0,390.12,47.07Z" />
            <path d="M456.27,1.22A13.23,13.23,0,0,1,458.5.41,9.66,9.66,0,0,1,461.14,0q5.67,0,10.95,5.28l3.25,3.65,8.52-2a82.83,82.83,0,0,1,16.44-3q7.9-.61,14-.61,15,0,24.4,5.27a48.36,48.36,0,0,1,15,12.58,40,40,0,0,1,7.45,15.22,44.33,44.33,0,0,1,1.46,13.19,155.91,155.91,0,0,1-11.37,51.74,173.47,173.47,0,0,1-25.76,44.24A126.63,126.63,0,0,1,490,176.13a83.08,83.08,0,0,1-41.8,11.36q-8.11,0-12.17-1.83a38.55,38.55,0,0,1-8.53-5.48,34.13,34.13,0,0,1-3.24-3.65A4.94,4.94,0,0,1,423,174.1q0-2,10.55-2,18.66,0,37.74-11.37a134.85,134.85,0,0,0,34.5-29.82,172.88,172.88,0,0,0,25.56-41.6,132.86,132.86,0,0,0,11.37-46.67q.4-6.48-2.24-10.75a21,21,0,0,0-6.89-6.9,27.94,27.94,0,0,0-9.74-3.65,58.86,58.86,0,0,0-10.76-1q-13,0-28.41,5.28c-4.33,1.35-7,2.37-7.91,3s-1.69,2.5-2.23,5.48A77.28,77.28,0,0,1,472.09,43q-1.62,4.86-4.66,11.77t-7.71,16.63Q455,81.17,448.56,94.56q-4.47,8.11-9.95,20.49T428.26,139.6l-1.62,3.65q-4.47,12.58-6.49,19.08a77.27,77.27,0,0,0-2.84,12.17q-.82,6.09-1.42,8.52a4.64,4.64,0,0,1-2.23,3.25,12.61,12.61,0,0,1-5.69,1.22,23.6,23.6,0,0,1-13.39-4.06,4.87,4.87,0,0,1-2.43-2.64,50,50,0,0,1-.81-7.5,133.43,133.43,0,0,1,6.49-29.22q4.88-14.2,11.16-28.41t14-28.81q7.71-14.61,15-31.25a11.89,11.89,0,0,0,1.42-3.66A20.51,20.51,0,0,0,440,49.1c-.81,0-2.57,1-5.27,2.84A88.49,88.49,0,0,0,426,59.05q-4.66,4.26-9.13,8.72a55.41,55.41,0,0,0-6.9,8.12q-3.64,5.69-5.68,8.93C403,87,402,88.54,401.48,89.48s-1,1.7-1.22,2.23c-1.08,0-2.77-.87-5.07-2.63A33.85,33.85,0,0,1,388.5,82a36.49,36.49,0,0,1,5.88-18.06A80.28,80.28,0,0,1,408,47.68a152,152,0,0,1,17.66-14q9.53-6.48,18.06-11.36A40.38,40.38,0,0,0,448,19.89a19.93,19.93,0,0,0,2.23-1.63q.81-.81,1.62-6.49a43.35,43.35,0,0,1,1.63-7.51A4.85,4.85,0,0,1,456.27,1.22ZM398.64,67.77c2.16-3.51,3.25-5.68,3.25-6.49-.28-.27-.95.54-2,2.43s-2.3,3.8-3.65,5.69q-2.44,4-2,4Zm8.93-5.27-2.84,2a44,44,0,0,0-3.86,6.08q-2.24,4.06-1.82,4.06c.26,0,1.42-1.48,3.45-4.46s3.85-5.55,5.47-7.71Zm-2.44,105.1a20.94,20.94,0,0,1,.21-3,17.51,17.51,0,0,0,.2-2.23v-2a3.15,3.15,0,0,1-.41,1.22,30.11,30.11,0,0,0-1.21,3.24c-.28,1.36-.48,2.58-.61,3.65a25.45,25.45,0,0,0-.21,3.25,2.76,2.76,0,0,0-.2,1.83,9.88,9.88,0,0,1,.2,1.82,1.18,1.18,0,0,0,.41.82c0,.27.13.4.41.4C404.46,176.53,404.86,173.56,405.13,167.6ZM448.56,46.67a2,2,0,0,0,.4-1.42V43.42c-.81,0-1.36.81-1.62,2.44s-.41,2.57-.41,2.84ZM457.48,43a7,7,0,0,1,.82-2,6.54,6.54,0,0,0,.81-2.84c0-.54-.14-.81-.41-.81-.54,0-.95.4-1.22,1.21-.27.55-.81,1.83-1.62,3.86s-1.69,4.2-2.64,6.49-2.1,5.35-3.45,9.13c1.35-2.16,2.44-4.06,3.25-5.68s1.62-3.31,2.44-5.07S456.94,44.1,457.48,43Zm10.15.81a12.45,12.45,0,0,0,.81-2.44,12,12,0,0,0,.41-2,.36.36,0,0,0-.41.41c-.27.27-.4.48-.4.61s-.14.34-.41.61c-.81,2.17-1.83,4.8-3,7.91s-1.7,4.81-1.42,5.07c.26,0,.94-1.14,2-3.45A37.05,37.05,0,0,0,467.63,43.83Zm60.06,65.34a.82.82,0,0,1,.2-.61.82.82,0,0,0,.21-.61v-.41c-.28,0-.75.55-1.42,1.63a40.58,40.58,0,0,1-2.64,3.65Q520,118.51,514.3,126a117.09,117.09,0,0,1-10.15,12q-6.9,7.31-6.08,7.3c.26,0,1.89-1.21,4.87-3.65a108.93,108.93,0,0,0,14.81-16.43A101.38,101.38,0,0,0,527.69,109.17Zm-2.84,17a6.3,6.3,0,0,1,.81-2.44,3.54,3.54,0,0,0,.41-1.62,9.42,9.42,0,0,0-1.63,2.44c-.54.81-1.15,1.69-1.82,2.63s-1.29,1.83-1.83,2.64a78.53,78.53,0,0,0-5.88,6.7,50.2,50.2,0,0,1-6.29,6.69q-2.44,2.85-4.26,4.87c-1.22,1.36-1.7,2.17-1.42,2.44a22.56,22.56,0,0,1,2.43-2c.54-.54,1.28-1.22,2.23-2s2-1.76,3-2.84a105.82,105.82,0,0,0,8.72-8.93A36.47,36.47,0,0,0,524.85,126.21Zm3.65,10.15c.81-1.63,1.08-2.44.81-2.44q-3.24,3.26-6.08,6.49c-1.63,1.9-3.19,3.72-4.67,5.48s-2.64,3.05-3.45,3.86l-1.22,2,1.63-1.22a30.61,30.61,0,0,0,3.24-2.64,37.37,37.37,0,0,0,3.86-4.06c1.22-1.48,2.36-2.9,3.45-4.26S528,137.17,528.5,136.36Z" />
            <path d="M593.43,58.3q.41-9.3,5.68-19.63a76.83,76.83,0,0,1,13.6-18.83A78.15,78.15,0,0,1,631,5.87,40.65,40.65,0,0,1,650.65.41a20.06,20.06,0,0,1,11,2.84,19.76,19.76,0,0,1,6.9,7.3,30.11,30.11,0,0,1,3.25,10.15,50.2,50.2,0,0,1,.4,11,51.71,51.71,0,0,1-2,10.35,35.8,35.8,0,0,1-4.46,9.74,28.09,28.09,0,0,1-6.7,7.1,13.7,13.7,0,0,1-8.32,2.84,28.88,28.88,0,0,1-7.71-1.42c-3.24-.94-4.87-2.09-4.87-3.45a16.93,16.93,0,0,1,1.42-5.27c1-2.44,1.89-5.14,2.84-8.12s1.89-6.08,2.84-9.33A49,49,0,0,0,647,24.75V20.29q-4.47,0-9.94,5.07a81.45,81.45,0,0,0-10.35,11.77,98.72,98.72,0,0,0-8.52,14q-3.66,7.31-3.65,11.37a27.59,27.59,0,0,0,3,14.4q3.45,6.7,7.91,13.6a95.14,95.14,0,0,1,7.92,15.22q3.44,8.31,3,19.68A59.39,59.39,0,0,1,630,148.33a75.49,75.49,0,0,1-14.61,19.88,76.46,76.46,0,0,1-20.29,14.21,52.8,52.8,0,0,1-23.14,5.47A40.25,40.25,0,0,1,547,179.78q-10.76-8.11-10-23.54a8,8,0,0,1,2.64-6.09,20.4,20.4,0,0,1,6.09-3.85,32.3,32.3,0,0,1,7.1-2,39.59,39.59,0,0,1,6.49-.61c3.79,0,6,1.21,6.7,3.61a31.54,31.54,0,0,1,1,8.42l-.4,6.42a24.93,24.93,0,0,0,1.22,10.22q1.61,4.6,9.74,4.61,6.48,0,12.17-7.49A77,77,0,0,0,599.52,152,138.35,138.35,0,0,0,606,132a106.13,106.13,0,0,0,2.84-15.39,57.17,57.17,0,0,0-2-18.62,117.41,117.41,0,0,0-5.48-14.78q-3-6.69-5.68-12.76A25.68,25.68,0,0,1,593.43,58.3Zm9.34-15.69a3.57,3.57,0,0,0,1.42-1.42c.4-.67.74-1.28,1-1.83a87.73,87.73,0,0,1,8.93-12.58Q619,21.11,624.28,15A98.54,98.54,0,0,0,611.49,27.6Q604.38,35.71,602.77,42.61Zm8.93-4.87a3.51,3.51,0,0,0,1.42-1.62,7.41,7.41,0,0,1,1.42-2,66.89,66.89,0,0,1,8.92-9.54A66.88,66.88,0,0,0,632.39,15a150.87,150.87,0,0,0-11.56,10.14A42.55,42.55,0,0,0,611.7,37.74Zm4,82-.4-1.63q-.83,4.47-1.63,8.53t-1.62,8.52a19.11,19.11,0,0,0,2.23-4.06,11.83,11.83,0,0,0,1-4.46ZM621,125.8a50.6,50.6,0,0,1-2.23,6.09,16.05,16.05,0,0,0-1.42,6.49q.81,0,2.23-4a25.44,25.44,0,0,0,1.42-4.87Zm7.71-95.36a3.29,3.29,0,0,0-2,1.21,8.63,8.63,0,0,0-1.62,2ZM630,133.92l-.81.81a3.15,3.15,0,0,0-.41,2v1.62l.41-.81ZM651.87,33.28a34.13,34.13,0,0,0,.81-6.09,17.4,17.4,0,0,0-.81-6.09,34.07,34.07,0,0,1-.81,5.68A26.79,26.79,0,0,0,651.87,33.28Zm7.31-3.66a10.52,10.52,0,0,0-.41-3.24l-1.62,6.9.4,1.62,1.22-2Z" />
        </g>
    </g>
</svg>